<mxfile host="app.diagrams.net" agent="Mozilla/5.0 (Windows NT 10.0; Win64; x64) AppleWebKit/537.36 (KHTML, like Gecko) Chrome/129.0.0.0 Safari/537.36" version="24.7.17">
  <diagram name="Страница — 1" id="c5_Uof6gN9_R0yR894XW">
    <mxGraphModel dx="1434" dy="738" grid="0" gridSize="10" guides="1" tooltips="1" connect="1" arrows="1" fold="1" page="1" pageScale="1" pageWidth="827" pageHeight="1169" math="0" shadow="0">
      <root>
        <mxCell id="0" />
        <mxCell id="1" parent="0" />
        <mxCell id="t7Nsnnwgpy5KhECo7Yjr-15" value="" style="edgeStyle=orthogonalEdgeStyle;rounded=0;orthogonalLoop=1;jettySize=auto;html=1;" parent="1" source="t7Nsnnwgpy5KhECo7Yjr-1" target="t7Nsnnwgpy5KhECo7Yjr-14" edge="1">
          <mxGeometry relative="1" as="geometry" />
        </mxCell>
        <mxCell id="t7Nsnnwgpy5KhECo7Yjr-1" value="Start" style="ellipse;whiteSpace=wrap;html=1;fillColor=#d5e8d4;strokeColor=#82b366;" parent="1" vertex="1">
          <mxGeometry x="30" y="10" width="120" height="80" as="geometry" />
        </mxCell>
        <mxCell id="t7Nsnnwgpy5KhECo7Yjr-19" value="" style="edgeStyle=orthogonalEdgeStyle;rounded=0;orthogonalLoop=1;jettySize=auto;html=1;" parent="1" source="t7Nsnnwgpy5KhECo7Yjr-14" target="t7Nsnnwgpy5KhECo7Yjr-18" edge="1">
          <mxGeometry relative="1" as="geometry" />
        </mxCell>
        <mxCell id="t7Nsnnwgpy5KhECo7Yjr-14" value="int rDice(){&lt;div&gt;return rand() % 6 + 1&lt;/div&gt;&lt;div&gt;}&lt;/div&gt;&lt;div&gt;Генератор рандомного числа для кубика&lt;/div&gt;" style="whiteSpace=wrap;html=1;" parent="1" vertex="1">
          <mxGeometry x="20" y="120" width="140" height="80" as="geometry" />
        </mxCell>
        <mxCell id="t7Nsnnwgpy5KhECo7Yjr-23" value="" style="edgeStyle=orthogonalEdgeStyle;rounded=0;orthogonalLoop=1;jettySize=auto;html=1;" parent="1" source="t7Nsnnwgpy5KhECo7Yjr-18" target="t7Nsnnwgpy5KhECo7Yjr-22" edge="1">
          <mxGeometry relative="1" as="geometry" />
        </mxCell>
        <mxCell id="t7Nsnnwgpy5KhECo7Yjr-18" value="int main() {&lt;div&gt;srand(time(0))&lt;/div&gt;&lt;div&gt;Щоб число завжди було різне&lt;/div&gt;" style="whiteSpace=wrap;html=1;" parent="1" vertex="1">
          <mxGeometry x="30" y="230" width="120" height="60" as="geometry" />
        </mxCell>
        <mxCell id="t7Nsnnwgpy5KhECo7Yjr-27" value="" style="edgeStyle=orthogonalEdgeStyle;rounded=0;orthogonalLoop=1;jettySize=auto;html=1;" parent="1" source="t7Nsnnwgpy5KhECo7Yjr-22" target="t7Nsnnwgpy5KhECo7Yjr-26" edge="1">
          <mxGeometry relative="1" as="geometry" />
        </mxCell>
        <mxCell id="t7Nsnnwgpy5KhECo7Yjr-22" value="Roll Dice (with pc)" style="whiteSpace=wrap;html=1;" parent="1" vertex="1">
          <mxGeometry x="30" y="320" width="120" height="60" as="geometry" />
        </mxCell>
        <mxCell id="t7Nsnnwgpy5KhECo7Yjr-29" value="" style="edgeStyle=orthogonalEdgeStyle;rounded=0;orthogonalLoop=1;jettySize=auto;html=1;" parent="1" source="t7Nsnnwgpy5KhECo7Yjr-26" target="t7Nsnnwgpy5KhECo7Yjr-28" edge="1">
          <mxGeometry relative="1" as="geometry" />
        </mxCell>
        <mxCell id="t7Nsnnwgpy5KhECo7Yjr-26" value="int p_dice1 = rDice()" style="whiteSpace=wrap;html=1;" parent="1" vertex="1">
          <mxGeometry x="30" y="390" width="120" height="60" as="geometry" />
        </mxCell>
        <mxCell id="t7Nsnnwgpy5KhECo7Yjr-36" value="" style="edgeStyle=orthogonalEdgeStyle;rounded=0;orthogonalLoop=1;jettySize=auto;html=1;" parent="1" source="t7Nsnnwgpy5KhECo7Yjr-28" target="t7Nsnnwgpy5KhECo7Yjr-32" edge="1">
          <mxGeometry relative="1" as="geometry" />
        </mxCell>
        <mxCell id="t7Nsnnwgpy5KhECo7Yjr-28" value="int p_dice2 = rDice()" style="whiteSpace=wrap;html=1;" parent="1" vertex="1">
          <mxGeometry x="30" y="460" width="120" height="60" as="geometry" />
        </mxCell>
        <mxCell id="t7Nsnnwgpy5KhECo7Yjr-38" value="" style="edgeStyle=orthogonalEdgeStyle;rounded=0;orthogonalLoop=1;jettySize=auto;html=1;" parent="1" source="t7Nsnnwgpy5KhECo7Yjr-32" target="t7Nsnnwgpy5KhECo7Yjr-37" edge="1">
          <mxGeometry relative="1" as="geometry" />
        </mxCell>
        <mxCell id="t7Nsnnwgpy5KhECo7Yjr-32" value="int p_total = p_dice1 + p_dice2" style="rounded=0;whiteSpace=wrap;html=1;" parent="1" vertex="1">
          <mxGeometry y="540" width="180" height="60" as="geometry" />
        </mxCell>
        <mxCell id="t7Nsnnwgpy5KhECo7Yjr-40" value="" style="edgeStyle=orthogonalEdgeStyle;rounded=0;orthogonalLoop=1;jettySize=auto;html=1;" parent="1" source="t7Nsnnwgpy5KhECo7Yjr-37" target="t7Nsnnwgpy5KhECo7Yjr-39" edge="1">
          <mxGeometry relative="1" as="geometry" />
        </mxCell>
        <mxCell id="t7Nsnnwgpy5KhECo7Yjr-37" value="Ви кинули: p_dice1 і p_dice2" style="whiteSpace=wrap;html=1;rounded=0;" parent="1" vertex="1">
          <mxGeometry x="10" y="620" width="160" height="60" as="geometry" />
        </mxCell>
        <mxCell id="t7Nsnnwgpy5KhECo7Yjr-45" value="" style="edgeStyle=orthogonalEdgeStyle;rounded=0;orthogonalLoop=1;jettySize=auto;html=1;entryX=0;entryY=0.5;entryDx=0;entryDy=0;" parent="1" source="t7Nsnnwgpy5KhECo7Yjr-39" target="t7Nsnnwgpy5KhECo7Yjr-44" edge="1">
          <mxGeometry relative="1" as="geometry" />
        </mxCell>
        <mxCell id="t7Nsnnwgpy5KhECo7Yjr-39" value="Ваша сума: p_total" style="whiteSpace=wrap;html=1;rounded=0;" parent="1" vertex="1">
          <mxGeometry x="10" y="700" width="160" height="60" as="geometry" />
        </mxCell>
        <mxCell id="t7Nsnnwgpy5KhECo7Yjr-47" value="" style="edgeStyle=orthogonalEdgeStyle;rounded=0;orthogonalLoop=1;jettySize=auto;html=1;" parent="1" source="t7Nsnnwgpy5KhECo7Yjr-44" target="t7Nsnnwgpy5KhECo7Yjr-46" edge="1">
          <mxGeometry relative="1" as="geometry" />
        </mxCell>
        <mxCell id="t7Nsnnwgpy5KhECo7Yjr-44" value="int c_dice1 = rDice()" style="whiteSpace=wrap;html=1;rounded=0;" parent="1" vertex="1">
          <mxGeometry x="270" y="20" width="120" height="60" as="geometry" />
        </mxCell>
        <mxCell id="t7Nsnnwgpy5KhECo7Yjr-51" value="" style="edgeStyle=orthogonalEdgeStyle;rounded=0;orthogonalLoop=1;jettySize=auto;html=1;" parent="1" source="t7Nsnnwgpy5KhECo7Yjr-46" target="t7Nsnnwgpy5KhECo7Yjr-50" edge="1">
          <mxGeometry relative="1" as="geometry" />
        </mxCell>
        <mxCell id="t7Nsnnwgpy5KhECo7Yjr-46" value="int c_dice2 = rDice()" style="whiteSpace=wrap;html=1;" parent="1" vertex="1">
          <mxGeometry x="270" y="90" width="120" height="60" as="geometry" />
        </mxCell>
        <mxCell id="t7Nsnnwgpy5KhECo7Yjr-53" value="" style="edgeStyle=orthogonalEdgeStyle;rounded=0;orthogonalLoop=1;jettySize=auto;html=1;" parent="1" source="t7Nsnnwgpy5KhECo7Yjr-50" target="t7Nsnnwgpy5KhECo7Yjr-52" edge="1">
          <mxGeometry relative="1" as="geometry" />
        </mxCell>
        <mxCell id="t7Nsnnwgpy5KhECo7Yjr-50" value="int c_total = c_dice1 + c_dice2" style="rounded=0;whiteSpace=wrap;html=1;" parent="1" vertex="1">
          <mxGeometry x="240" y="170" width="180" height="60" as="geometry" />
        </mxCell>
        <mxCell id="t7Nsnnwgpy5KhECo7Yjr-55" value="" style="edgeStyle=orthogonalEdgeStyle;rounded=0;orthogonalLoop=1;jettySize=auto;html=1;" parent="1" source="t7Nsnnwgpy5KhECo7Yjr-52" target="t7Nsnnwgpy5KhECo7Yjr-54" edge="1">
          <mxGeometry relative="1" as="geometry" />
        </mxCell>
        <mxCell id="t7Nsnnwgpy5KhECo7Yjr-52" value="Комп&#39;ютер кинув: c_dice1 і c_dice2" style="whiteSpace=wrap;html=1;rounded=0;" parent="1" vertex="1">
          <mxGeometry x="230" y="250" width="200" height="60" as="geometry" />
        </mxCell>
        <mxCell id="t7Nsnnwgpy5KhECo7Yjr-57" value="" style="edgeStyle=orthogonalEdgeStyle;rounded=0;orthogonalLoop=1;jettySize=auto;html=1;" parent="1" source="t7Nsnnwgpy5KhECo7Yjr-54" target="t7Nsnnwgpy5KhECo7Yjr-56" edge="1">
          <mxGeometry relative="1" as="geometry" />
        </mxCell>
        <mxCell id="t7Nsnnwgpy5KhECo7Yjr-54" value="Сума комп&#39;ютера: c_total" style="whiteSpace=wrap;html=1;rounded=0;" parent="1" vertex="1">
          <mxGeometry x="230" y="320" width="200" height="60" as="geometry" />
        </mxCell>
        <mxCell id="t7Nsnnwgpy5KhECo7Yjr-58" style="edgeStyle=orthogonalEdgeStyle;rounded=0;orthogonalLoop=1;jettySize=auto;html=1;exitX=0;exitY=0.5;exitDx=0;exitDy=0;entryX=0.5;entryY=0;entryDx=0;entryDy=0;" parent="1" source="t7Nsnnwgpy5KhECo7Yjr-56" target="t7Nsnnwgpy5KhECo7Yjr-59" edge="1">
          <mxGeometry relative="1" as="geometry">
            <mxPoint x="280" y="450" as="targetPoint" />
          </mxGeometry>
        </mxCell>
        <mxCell id="t7Nsnnwgpy5KhECo7Yjr-62" style="edgeStyle=orthogonalEdgeStyle;rounded=0;orthogonalLoop=1;jettySize=auto;html=1;exitX=1;exitY=0.5;exitDx=0;exitDy=0;entryX=0.5;entryY=0;entryDx=0;entryDy=0;" parent="1" source="t7Nsnnwgpy5KhECo7Yjr-56" target="t7Nsnnwgpy5KhECo7Yjr-64" edge="1">
          <mxGeometry relative="1" as="geometry">
            <mxPoint x="520" y="450" as="targetPoint" />
          </mxGeometry>
        </mxCell>
        <mxCell id="t7Nsnnwgpy5KhECo7Yjr-56" value="p_total &amp;gt; c_total" style="rhombus;whiteSpace=wrap;html=1;rounded=0;" parent="1" vertex="1">
          <mxGeometry x="340" y="410" width="120" height="80" as="geometry" />
        </mxCell>
        <mxCell id="t7Nsnnwgpy5KhECo7Yjr-73" style="edgeStyle=orthogonalEdgeStyle;rounded=0;orthogonalLoop=1;jettySize=auto;html=1;exitX=0.5;exitY=1;exitDx=0;exitDy=0;entryX=0.5;entryY=0;entryDx=0;entryDy=0;" parent="1" source="t7Nsnnwgpy5KhECo7Yjr-59" target="t7Nsnnwgpy5KhECo7Yjr-76" edge="1">
          <mxGeometry relative="1" as="geometry">
            <mxPoint x="295" y="640" as="targetPoint" />
          </mxGeometry>
        </mxCell>
        <mxCell id="t7Nsnnwgpy5KhECo7Yjr-59" value="Ви виграли!" style="rounded=0;whiteSpace=wrap;html=1;" parent="1" vertex="1">
          <mxGeometry x="240" y="540" width="110" height="40" as="geometry" />
        </mxCell>
        <mxCell id="t7Nsnnwgpy5KhECo7Yjr-60" value="Так" style="text;html=1;align=center;verticalAlign=middle;whiteSpace=wrap;rounded=0;" parent="1" vertex="1">
          <mxGeometry x="300" y="430" width="30" height="15" as="geometry" />
        </mxCell>
        <mxCell id="t7Nsnnwgpy5KhECo7Yjr-63" value="Ні" style="text;html=1;align=center;verticalAlign=middle;whiteSpace=wrap;rounded=0;" parent="1" vertex="1">
          <mxGeometry x="480" y="430" width="30" height="15" as="geometry" />
        </mxCell>
        <mxCell id="t7Nsnnwgpy5KhECo7Yjr-68" style="edgeStyle=orthogonalEdgeStyle;rounded=0;orthogonalLoop=1;jettySize=auto;html=1;exitX=0;exitY=0.5;exitDx=0;exitDy=0;entryX=0.5;entryY=0;entryDx=0;entryDy=0;" parent="1" source="t7Nsnnwgpy5KhECo7Yjr-64" target="t7Nsnnwgpy5KhECo7Yjr-69" edge="1">
          <mxGeometry relative="1" as="geometry">
            <mxPoint x="440" y="510" as="targetPoint" />
          </mxGeometry>
        </mxCell>
        <mxCell id="t7Nsnnwgpy5KhECo7Yjr-71" style="edgeStyle=orthogonalEdgeStyle;rounded=0;orthogonalLoop=1;jettySize=auto;html=1;exitX=1;exitY=0.5;exitDx=0;exitDy=0;entryX=0.5;entryY=0;entryDx=0;entryDy=0;" parent="1" source="t7Nsnnwgpy5KhECo7Yjr-64" target="t7Nsnnwgpy5KhECo7Yjr-72" edge="1">
          <mxGeometry relative="1" as="geometry">
            <mxPoint x="670" y="510" as="targetPoint" />
          </mxGeometry>
        </mxCell>
        <mxCell id="t7Nsnnwgpy5KhECo7Yjr-64" value="с_total &amp;gt; p_total" style="rhombus;whiteSpace=wrap;html=1;rounded=0;" parent="1" vertex="1">
          <mxGeometry x="510" y="470" width="120" height="80" as="geometry" />
        </mxCell>
        <mxCell id="t7Nsnnwgpy5KhECo7Yjr-74" style="edgeStyle=orthogonalEdgeStyle;rounded=0;orthogonalLoop=1;jettySize=auto;html=1;exitX=0.5;exitY=1;exitDx=0;exitDy=0;entryX=0.5;entryY=0;entryDx=0;entryDy=0;" parent="1" source="t7Nsnnwgpy5KhECo7Yjr-69" target="t7Nsnnwgpy5KhECo7Yjr-76" edge="1">
          <mxGeometry relative="1" as="geometry">
            <mxPoint x="435" y="640" as="targetPoint" />
          </mxGeometry>
        </mxCell>
        <mxCell id="t7Nsnnwgpy5KhECo7Yjr-69" value="Ви програли!" style="rounded=0;whiteSpace=wrap;html=1;" parent="1" vertex="1">
          <mxGeometry x="410" y="540" width="110" height="40" as="geometry" />
        </mxCell>
        <mxCell id="t7Nsnnwgpy5KhECo7Yjr-70" value="Так" style="text;html=1;align=center;verticalAlign=middle;whiteSpace=wrap;rounded=0;" parent="1" vertex="1">
          <mxGeometry x="470" y="490" width="30" height="15" as="geometry" />
        </mxCell>
        <mxCell id="t7Nsnnwgpy5KhECo7Yjr-75" style="edgeStyle=orthogonalEdgeStyle;rounded=0;orthogonalLoop=1;jettySize=auto;html=1;exitX=0.5;exitY=1;exitDx=0;exitDy=0;entryX=0.5;entryY=0;entryDx=0;entryDy=0;" parent="1" source="t7Nsnnwgpy5KhECo7Yjr-72" target="t7Nsnnwgpy5KhECo7Yjr-76" edge="1">
          <mxGeometry relative="1" as="geometry">
            <mxPoint x="675" y="640" as="targetPoint" />
          </mxGeometry>
        </mxCell>
        <mxCell id="t7Nsnnwgpy5KhECo7Yjr-72" value="Нічия!" style="rounded=0;whiteSpace=wrap;html=1;" parent="1" vertex="1">
          <mxGeometry x="620" y="540" width="110" height="40" as="geometry" />
        </mxCell>
        <mxCell id="t7Nsnnwgpy5KhECo7Yjr-76" value="Finish" style="ellipse;whiteSpace=wrap;html=1;fillColor=#f8cecc;strokeColor=#b85450;" parent="1" vertex="1">
          <mxGeometry x="405" y="640" width="120" height="80" as="geometry" />
        </mxCell>
        <mxCell id="t7Nsnnwgpy5KhECo7Yjr-77" value="Ні" style="text;html=1;align=center;verticalAlign=middle;whiteSpace=wrap;rounded=0;" parent="1" vertex="1">
          <mxGeometry x="630" y="490" width="30" height="15" as="geometry" />
        </mxCell>
      </root>
    </mxGraphModel>
  </diagram>
</mxfile>
